<?xml version="1.0" encoding="UTF-8" standalone="no"?>
<svg width="54px" height="49px" viewBox="0 0 54 49" version="1.1" xmlns="http://www.w3.org/2000/svg" xmlns:xlink="http://www.w3.org/1999/xlink" xmlns:sketch="http://www.bohemiancoding.com/sketch/ns">
    <!-- Generator: Sketch 3.1.1 (8761) - http://www.bohemiancoding.com/sketch -->
    <title>wind-icon</title>
    <desc>Created with Sketch.</desc>
    <defs></defs>
    <g id="Page-1" stroke="none" stroke-width="1" fill="none" fill-rule="evenodd" sketch:type="MSPage">
        <g id="wind-icon" sketch:type="MSLayerGroup" transform="translate(0.000000, 1.000000)" fill="#FFFFFF">
            <path d="M48.746,35.588 L48.746,35.639 L47.997,35.639 L44.997,35.639 C43.893,35.639 42.997,34.744 42.997,33.639 C42.997,32.535 43.893,31.64 44.997,31.64 L47.997,31.64 C49.101,31.64 49.996,30.744 49.996,29.64 C49.996,28.536 49.101,27.641 47.997,27.641 C46.893,27.641 45.997,26.745 45.997,25.641 C45.997,24.536 46.893,23.641 47.997,23.641 C48.135,23.641 48.269,23.655 48.399,23.682 C51.521,23.893 53.996,26.465 53.996,29.64 C53.996,32.698 51.705,35.217 48.746,35.588 L48.746,35.588 Z M37.998,23.641 C36.894,23.641 35.998,22.745 35.998,21.641 C35.998,20.537 36.894,19.641 37.998,19.641 C38.136,19.641 38.27,19.655 38.401,19.682 C41.522,19.893 43.997,22.465 43.997,25.641 C43.997,28.7 41.706,31.218 38.748,31.588 L38.748,31.64 L37.998,31.64 L30.013,31.64 L16.001,31.64 C14.897,31.64 14.001,32.536 14.001,33.639 C14.001,34.744 14.897,35.639 16.001,35.639 L37.998,35.639 L38.748,35.639 L38.748,35.692 C41.706,36.061 43.997,38.581 43.997,41.639 C43.997,44.814 41.522,47.386 38.401,47.597 C38.27,47.623 38.135,47.638 37.998,47.638 C36.894,47.638 35.998,46.742 35.998,45.638 C35.998,44.534 36.894,43.639 37.998,43.639 C39.102,43.639 39.998,42.743 39.998,41.639 C39.998,40.534 39.102,39.639 37.998,39.639 L16.001,39.639 L15.251,39.639 L15.251,39.587 C12.292,39.217 10.001,36.697 10.001,33.639 C10.001,32.584 10.295,31.607 10.774,30.749 C4.509,28.581 0.003,22.645 0.003,15.642 C0.003,6.807 7.165,-0.356 16.001,-0.356 C22.005,-0.356 27.23,2.956 29.966,7.848 C30.63,7.734 31.302,7.643 31.999,7.643 C37.895,7.643 42.787,11.899 43.797,17.505 C42.402,16.51 40.747,15.859 38.948,15.69 C37.571,13.274 34.977,11.643 31.999,11.643 C30.398,11.643 28.915,12.123 27.665,12.933 C26.434,7.617 21.692,3.643 16.001,3.643 C9.374,3.643 4.002,9.015 4.002,15.642 C4.002,22.268 9.374,27.641 16.001,27.641 L28.2,27.641 L37.998,27.641 C39.102,27.641 39.998,26.745 39.998,25.641 C39.998,24.535 39.103,23.641 37.998,23.641 L37.998,23.641 Z" id="Shape" sketch:type="MSShapeGroup"></path>
        </g>
    </g>
</svg>